<?xml version="1.0" standalone="yes"?>
<svg xmlns="http://www.w3.org/2000/svg" width="275" height="93">
<path style="fill:#000000; stroke:none;" d="M0 0L0 93L275 93L275 0L0 0z"/>
<path style="fill:#5d517c; stroke:none;" d="M73.6667 15.3333C73.2222 15.7778 74.2778 15.7222 74.3333 15.6667C74.7778 15.2222 73.7222 15.2778 73.6667 15.3333z"/>
<path style="fill:#7d59b8; stroke:none;" d="M73 16C73.019 21.5417 74.939 26.4875 75 32C76.9822 27.2762 76 21.0902 76 16L73 16z"/>
<path style="fill:#9673c2; stroke:none;" d="M73 24L73 56C75.599 49.8064 74.0004 40.6856 74 34C73.9998 30.5814 74.3283 27.1656 73 24z"/>
<path style="fill:#9566d4; stroke:none;" d="M74 24L74 49C76.9752 42.1028 76.9244 30.9048 74 24z"/>
<path style="fill:#9e78c9; stroke:none;" d="M87 29C87 33.8796 84.514 48.8244 90 50C86.7404 44.1388 88 36.524 88 30L91 30L91 45C92.9822 40.2762 92 34.0902 92 29L87 29z"/>
<path style="fill:#9b74c3; stroke:none;" d="M101 29L101 50L106 50L106 29L101 29z"/>
<path style="fill:#9b69d8; stroke:none;" d="M112 48C111.227 45.4846 109.514 42.6662 109.552 40C109.698 29.5688 120.197 30.9006 127 32C115.484 22.8425 100.706 38.0333 112 48z"/>
<path style="fill:#956ec0; stroke:none;" d="M132 29L132 36C134.696 30.9658 138.669 27.9624 144 32C145.731 27.4093 134.858 29 132 29z"/>
<path style="fill:#9a77cb; stroke:none;" d="M146 29L146 33L152 33C150.494 32.317 149.685 32.1741 148 32L148 30L161 30C156.529 28.1237 150.817 29 146 29z"/>
<path style="fill:#896fab; stroke:none;" d="M161 29C160.316 30.58 160.195 30.7772 159 32C161.577 32.9757 161.952 31.1389 161 29z"/>
<path style="fill:#916eb9; stroke:none;" d="M172 31L176 30L176 45C177.982 40.2762 177 34.0902 177 29C174.597 29.168 173.54 29.1969 172 31z"/>
<path style="fill:#946bbe; stroke:none;" d="M185 29C185 34.4061 182.755 46.2904 187 50C185.409 43.3181 185.409 35.6819 187 29L185 29z"/>
<path style="fill:#aa68ec; stroke:none;" d="M187 50C190.025 49.4379 192.922 49.0636 196 49L196 47C190.681 46.5939 188.489 43.888 193 40C191.752 39.3152 191.452 39.2512 190 39C190.335 34.6057 191.556 32.7088 196 32L196 30C193.586 29.6968 189.755 28.4163 187.603 30.0424C185.813 31.3956 186.095 34.0507 186.29 36.0008C186.761 40.7102 187 45.2585 187 50z"/>
<path style="fill:#9a72c8; stroke:none;" d="M192 29C193.506 29.683 194.315 29.8259 196 30L196 32L191 32C193.332 32.9845 195.457 32.9813 198 33L198 29L192 29z"/>
<path style="fill:#9a72c3; stroke:none;" d="M201 29L201 50L206 50L206 42C205.015 44.3316 205.019 46.4566 205 49L202 49C202 42.1715 201.29 35.3965 204 29L201 29z"/>
<path style="fill:#ae6cee; stroke:none;" d="M204 29C202.041 32.671 202.003 35.8888 202 40L207 39C206.985 34.8863 207.03 31.9673 204 29z"/>
<path style="fill:#9576bb; stroke:none;" d="M205 29C205.545 30.6352 205.365 30.4549 207 31L207 29L205 29z"/>
<path style="fill:#9870c5; stroke:none;" d="M219 29C218.014 30.4785 218 30.2032 218 32C219.289 30.5574 219.401 30.7662 219 29z"/>
<path style="fill:#976dd4; stroke:none;" d="M220 29C217.093 33.4533 215.499 38.323 213 43C211.141 39.0723 209.401 35.1153 208 31C205.935 35.8779 206.851 40.3903 209.194 44.9807C210.084 46.7257 211.23 50.0464 213.834 49.2485C219.267 47.5837 218.683 37.3065 219 33L221 36C222.009 33.767 222.405 31.3956 223 29L220 29z"/>
<path style="fill:#965ac8; stroke:none;" d="M223 29L223 50C225.153 44.8692 225.153 34.1308 223 29z"/>
<path style="fill:#976dc6; stroke:none;" d="M228 29C228 34.9522 226.531 42.9227 230 48L229 30L232 30C232 34.6007 230.337 42.7995 234 46C232.669 40.4077 233 34.7168 233 29L228 29z"/>
<path style="fill:#9575c1; stroke:none;" d="M240 31L244 30L244 46C246.087 41.0259 245 34.362 245 29C242.597 29.168 241.54 29.1969 240 31z"/>
<path style="fill:#966cc6; stroke:none;" d="M248 38C251.67 31.0398 254.374 29.6262 262 32C256.789 24.6249 248.238 30.6718 248 38z"/>
<path style="fill:#aa6ee3; stroke:none;" d="M88 30L88 49L94 49C90.3217 43.1147 91 36.8152 91 30L88 30z"/>
<path style="fill:#a366e2; stroke:none;" d="M103 30C101.222 36.0143 102 42.7573 102 49L105 49C105 43.181 106.627 34.7871 103 30z"/>
<path style="fill:#ab68e7; stroke:none;" d="M127 45C123.427 45.2816 119.436 46.5736 116.19 44.4823C111.837 41.6776 112.413 35.0566 118.04 34.1566C120.812 33.7132 124.201 35.6376 127 36L127 32C123.928 31.1932 120.823 29.9757 117.59 30.3434C104.6 31.8206 108.462 54.4706 121.981 48.8565C124.158 47.9528 125.47 46.7008 127 45z"/>
<path style="fill:#ad6aeb; stroke:none;" d="M134 30C132.222 36.0143 133 42.7573 133 49L140 49C138.031 47.9372 136.202 47.4679 134 47C134.646 44.5422 134.646 43.4578 134 41C135.797 41 135.521 40.9857 137 40C135.763 36.5698 136.015 34.4785 137 31L136 30L134 30z"/>
<path style="fill:#995fd9; stroke:none;" d="M136 30C138.16 32.9963 140.426 32.9582 144 33L144 30L136 30z"/>
<path style="fill:#a56eda; stroke:none;" d="M148 32C151.493 31.5977 153.92 30.8827 156 34C158.357 32.9057 159.599 32.1654 161 30C156.921 30 150.848 28.7411 148 32z"/>
<path style="fill:#ad68eb; stroke:none;" d="M173 30L173 49L179 49C174.261 43.0674 175 37.3135 175 30L173 30z"/>
<path style="fill:#9f67d8; stroke:none;" d="M175 30C175 34.6007 173.337 42.7995 177 46C175.761 40.794 177.04 34.8605 175 30z"/>
<path style="fill:#ae6deb; stroke:none;" d="M222 30L222 36C220.814 34.8137 220.472 34.4162 220 33C218.17 36.2711 219.483 39.4155 220 43C222.752 39.1297 223.878 34.4765 222 30z"/>
<path style="fill:#a466e2; stroke:none;" d="M229 30L230 49C235.115 50.5121 239.09 49.7538 244 48L244 30L241 30C241 34.1127 242.071 40.0254 240.397 43.8519C239.232 46.5142 235.811 47.5406 233.603 45.392C230.442 42.3144 232 34.0453 232 30L229 30z"/>
<path style="fill:#a463e9; stroke:none;" d="M249 39L254 39L253 34C256.349 33.6258 259.633 33.9398 263 34C257.66 26.4929 249.265 30.8276 249 39z"/>
<path style="fill:#ad6bea; stroke:none;" d="M151 31C152.938 36.3165 151.213 45.8966 156 49L156 31L151 31z"/>
<path style="fill:#9f6bd1; stroke:none;" d="M172 31C172 36.0908 169.978 46.4858 174 50C172.54 43.8668 174.403 36.7259 172 31z"/>
<path style="fill:#9764d3; stroke:none;" d="M240 31C240 37.7502 241.593 45.3445 233 46C242.381 49.8938 242.457 36.8542 240 31z"/>
<path style="fill:#945dd9; stroke:none;" d="M38 32C36.59 42.4708 32.0874 52.4361 32 63L34 63C34.3417 56.3279 37.0507 50.1307 39.0262 43.8302C40.2652 39.8789 40.4994 35.9163 42 32L38 32z"/>
<path style="fill:#ff00ff; stroke:none;" d="M144 32L145 33L144 32z"/>
<path style="fill:#8e79a7; stroke:none;" d="M127 33C127.406 35.0924 127.217 35.0197 129 36C128.316 34.42 128.195 34.2228 127 33z"/>
<path style="fill:#906ac0; stroke:none;" d="M136 33L136 37C136.71 35.2405 136.71 34.7595 136 33z"/>
<path style="fill:#8266b5; stroke:none;" d="M40 34L40 38C40.7102 36.2405 40.7102 35.7595 40 34z"/>
<path style="fill:#9c62db; stroke:none;" d="M135 34C135.309 36.4471 135.805 37.834 137 40L134 41C134.363 43.2317 134.363 44.7683 134 47L140 48C137.582 48.7224 135.528 48.9481 133 49L133 36C131.231 40.2166 132 45.4588 132 50L144 50L144 46L136 46L136 42L143 41L143 38C139.311 37.7216 137.484 36.7125 135 34z"/>
<path style="fill:#996ed0; stroke:none;" d="M152 34L152 50L157 50L157 34C155.124 38.4715 156 44.1834 156 49C151.588 44.679 154.187 39.2111 152 34z"/>
<path style="fill:#8c68b6; stroke:none;" d="M258 34C260.052 34.8742 261.747 34.9528 264 35C261.948 34.1258 260.253 34.0472 258 34z"/>
<path style="fill:#a274b9; stroke:none;" d="M137 37C139.052 37.8742 140.747 37.9528 143 38C140.948 37.1257 139.253 37.0472 137 37z"/>
<path style="fill:#9c64db; stroke:none;" d="M186 37L186 49C187.512 45.3957 187.512 40.6043 186 37z"/>
<path style="fill:#9774c5; stroke:none;" d="M190 37C192.052 37.8742 193.747 37.9528 196 38L196 41L190 41C192.332 41.9845 194.457 41.9813 197 42L197 37L190 37z"/>
<path style="fill:#976dc3; stroke:none;" d="M215 37L215 40C216.015 38.8606 216.309 38.3885 217 37L215 37z"/>
<path style="fill:#9a65da; stroke:none;" d="M250 39C252.284 41.4659 256.072 43.3075 257 39L261 40C257.222 36.7199 254.462 38.0188 250 39z"/>
<path style="fill:#966cbb; stroke:none;" d="M112 38L112 42C112.71 40.2405 112.71 39.7595 112 38z"/>
<path style="fill:#936cc4; stroke:none;" d="M143 38C141.774 40.0347 141.297 40.3265 139 41C140.769 41.779 142.036 41.9124 144 42C143.826 40.3148 143.683 39.506 143 38z"/>
<path style="fill:#975adc; stroke:none;" d="M190 38C191.248 38.6848 191.548 38.7488 193 39L191 40C192.769 40.7789 194.036 40.9124 196 41L196 38L190 38z"/>
<path style="fill:#a25fe8; stroke:none;" d="M202 49L205 49L206 39C201.3 40.5599 202.003 44.6544 202 49z"/>
<path style="fill:#7f63b8; stroke:none;" d="M219 39L219 50C220.431 46.59 220.431 42.41 219 39z"/>
<path style="fill:#a55df2; stroke:none;" d="M222 39C220.862 42.8515 220.862 46.1485 222 50C223.431 46.59 223.431 42.41 222 39z"/>
<path style="fill:#af62f1; stroke:none;" d="M257 39C257.654 42.0539 259.007 41.9358 262 42C260.347 40.4875 259.106 39.8192 257 39z"/>
<path style="fill:#8f68c1; stroke:none;" d="M261 39L263 46C264.042 42.9772 263.134 41.2755 261 39z"/>
<path style="fill:#7c5cbe; stroke:none;" d="M10 47C13.8847 47.0022 15.3464 45.8451 16 42C13.2367 43.2995 11.8359 44.5531 10 47z"/>
<path style="fill:#7466a1; stroke:none;" d="M16 42L16 45C17.1952 43.7772 17.3164 43.58 18 42L16 42z"/>
<path style="fill:#896fba; stroke:none;" d="M54 42C54 43.7968 54.0143 43.5215 55 45L58 43C56.494 42.317 55.6852 42.1741 54 42z"/>
<path style="fill:#7e51c6; stroke:none;" d="M75 42L74 79C76.2375 73.6679 74.7887 66.725 75.0394 61C75.3086 54.8513 77.469 47.8838 75 42z"/>
<path style="fill:#9169b9; stroke:none;" d="M136 42L136 46C136.71 44.2405 136.71 43.7595 136 42z"/>
<path style="fill:#9d70ce; stroke:none;" d="M189 42L189 46C189.71 44.2405 189.71 43.7595 189 42z"/>
<path style="fill:#9666d7; stroke:none;" d="M257 42C257.472 43.4162 257.814 43.8137 259 45C255.215 45.44 251.782 44.238 248 44L249 48C249.479 46.5025 249.4 46.6498 249 45C255.25 47.5282 257.112 47.3019 262 43C260.231 42.2211 258.964 42.0876 257 42z"/>
<path style="fill:#9464d3; stroke:none;" d="M56 43C56.806 45.892 57.6767 47.0942 60 49C57.9837 51.3586 56.8125 53.0237 56 56C59.8455 54.9231 62.1477 52.7621 65 50C62.5065 46.5009 60.1786 44.1729 56 43z"/>
<path style="fill:#9966cc; stroke:none;" d="M121 46L127 45C125.044 46.5386 123.17 47.7806 121 49C125.373 50.1482 127.676 46.8013 129 43C125.476 43.1116 123.484 43.46 121 46z"/>
<path style="fill:#8f67c0; stroke:none;" d="M208 43L209 47C209.553 44.9922 209.303 44.6676 208 43z"/>
<path style="fill:#905cd0; stroke:none;" d="M220 43C220.032 45.875 219.792 48.0745 222 50C221.405 47.6044 221.009 45.233 220 43z"/>
<path style="fill:#a466e7; stroke:none;" d="M260 43C258.33 48.4916 253.223 46.1663 249 45C252.379 52.4599 261.716 50.8434 263 43L260 43z"/>
<path style="fill:#8768b5; stroke:none;" d="M35 44L35 48C35.7102 46.2405 35.7102 45.7595 35 44z"/>
<path style="fill:#8860bb; stroke:none;" d="M37 46L37 50C37.7102 48.2405 37.7102 47.7595 37 46z"/>
<path style="fill:#9369bd; stroke:none;" d="M93 46C95.2227 47.2127 96.6479 47.839 98 50C98.683 48.494 98.8259 47.6852 99 46L93 46z"/>
<path style="fill:#866bae; stroke:none;" d="M144 46L144 50C144.71 48.2405 144.71 47.7595 144 46z"/>
<path style="fill:#925ee1; stroke:none;" d="M177 46C177.768 47.3142 177.686 47.2321 179 48C177.199 48.5618 175.878 48.8241 174 49C177.704 50.5375 180.694 49.9364 182 46L177 46z"/>
<path style="fill:#9372b3; stroke:none;" d="M182 46L181 50C182.656 48.5957 182.751 48.0465 182 46z"/>
<path style="fill:#966acd; stroke:none;" d="M190 46C192.052 46.8742 193.747 46.9528 196 47L196 49L189 49C191.89 50.2129 194.874 49.9983 198 50L198 46L190 46z"/>
<path style="fill:#9376ba; stroke:none;" d="M262.333 46.6667C262.278 46.7222 262.222 47.7778 262.667 47.3333C262.722 47.2777 262.778 46.2223 262.333 46.6667z"/>
<path style="fill:#864ed3; stroke:none;" d="M17 56L12 47C3.58194 48.4814 12.5648 55.3156 17 56z"/>
<path style="fill:#945de2; stroke:none;" d="M92 47C93.7505 48.2549 94.8574 48.6137 97 49C95.4602 47.1969 94.4025 47.168 92 47z"/>
<path style="fill:#9b5fce; stroke:none;" d="M97 47C94.6921 48.7595 92.9077 48.9172 90 49C92.278 50.1001 98.5311 51.0616 97 47z"/>
<path style="fill:#0000ff; stroke:none;" d="M7 48L8 49L7 48z"/>
<path style="fill:#8b74b9; stroke:none;" d="M210.333 48.6667C210.278 48.7222 210.222 49.7778 210.667 49.3333C210.722 49.2777 210.778 48.2222 210.333 48.6667z"/>
<path style="fill:#8564b1; stroke:none;" d="M241.667 48.3333C241.222 48.7778 242.278 48.7222 242.333 48.6667C242.778 48.2223 241.722 48.2777 241.667 48.3333z"/>
<path style="fill:#885eb6; stroke:none;" d="M251.667 49.3333C251.222 49.7778 252.278 49.7222 252.333 49.6667C252.778 49.2223 251.722 49.2777 251.667 49.3333z"/>
<path style="fill:#906fb1; stroke:none;" d="M259.667 49.3333C259.222 49.7778 260.278 49.7222 260.333 49.6667C260.778 49.2222 259.722 49.2777 259.667 49.3333z"/>
<path style="fill:#896cb1; stroke:none;" d="M117 50C118.506 50.683 119.315 50.8259 121 51C119.494 50.317 118.685 50.1741 117 50z"/>
<path style="fill:#8566b2; stroke:none;" d="M234 50C235.769 50.779 237.036 50.9124 239 51C237.231 50.2211 235.964 50.0876 234 50z"/>
<path style="fill:#8e62b5; stroke:none;" d="M254 50C255.506 50.683 256.315 50.8259 258 51C256.494 50.317 255.685 50.1741 254 50z"/>
<path style="fill:#8b62b9; stroke:none;" d="M36 51L36 55C36.7102 53.2405 36.7102 52.7595 36 51z"/>
<path style="fill:#7863b1; stroke:none;" d="M55 54C54.4254 56.3962 54.5249 56.487 57 57C56.3087 55.6116 56.0154 55.1394 55 54z"/>
<path style="fill:#7a5da8; stroke:none;" d="M17 55C15.5215 55.9857 15.7968 56 14 56C15.5225 56.8551 17.9447 57.2884 17 55z"/>
<path style="fill:#8155c1; stroke:none;" d="M35 55C34.3521 57.7092 34.0583 60.2155 34 63C35.4327 60.3042 36.0383 57.898 35 55z"/>
<path style="fill:#7251b5; stroke:none;" d="M73 56L73 81L76 81L76 56C73.2956 62.4448 75 72.0322 75 79C72.8218 71.6309 75.945 63.0183 73 56z"/>
<path style="fill:#7a64b1; stroke:none;" d="M31 60L30 66L34 66C33.4028 63.5787 32.5667 61.9427 31 60z"/>
<path style="fill:#ff00ff; stroke:none;" d="M30 66L31 67L30 66z"/>
<path style="fill:#0000ff; stroke:none;" d="M31 66L32 67L31 66z"/>
<path style="fill:#7c62c1; stroke:none;" d="M86 66L86 76L88 76L88 68C91.5907 69.0384 92.9616 70.4093 94 74L96 74C95.5098 67.5204 92.053 66.0715 86 66z"/>
<path style="fill:#7e62c1; stroke:none;" d="M154 66L154 73C155.759 70.6921 155.917 68.9077 156 66L154 66z"/>
<path style="fill:#8269a9; stroke:none;" d="M159 66L159 77L161 77L161 66L159 66z"/>
<path style="fill:#735ea9; stroke:none;" d="M182 66L182 69C176.411 67.945 172.912 73.3904 178 77C177.716 71.5264 181.019 69.8868 182 76L184 76L184 66L182 66z"/>
<path style="fill:#805cb8; stroke:none;" d="M221 66C221.91 70.3933 222.368 74.4995 227 76L228 71C229.359 73.9018 229.83 76.0734 233 77L234 70C232.382 71.314 232.307 71.8773 232 74C230.706 70.661 230.13 67.9129 227 66L226 73C224.518 70.2626 223.583 67.76 221 66z"/>
<path style="fill:#816c9a; stroke:none;" d="M233 66L233 70L235 70L235 66L233 66z"/>
<path style="fill:#7d5bb5; stroke:none;" d="M248 66C248 69.7675 246.587 75.0544 251 76C250.094 72.4662 249.51 69.6461 250 66L248 66z"/>
<path style="fill:#000000; stroke:none;" d="M88 68L88 76C94.4718 74.6503 94.7532 69.0771 88 68z"/>
<path style="fill:#816ab7; stroke:none;" d="M98 76L107 73C103.731 65.6028 98.2188 69.3169 98 76z"/>
<path style="fill:#846abc; stroke:none;" d="M115 76L116 75C115.44 73.4245 115.111 70.7781 113.941 69.5316C112.239 67.7176 108.985 69.0735 109.75 71.679C110.398 73.8863 113.196 75.0024 115 76z"/>
<path style="fill:#7f6ab9; stroke:none;" d="M118 76L120 76C120.497 72.7929 121.15 71.5564 124 70C123.951 72.4611 123.566 74.6006 123 77L127 77C126.992 73.8309 126.9 71.0408 126 68C120.233 68.4553 118.196 69.9815 118 76z"/>
<path style="fill:#8564c3; stroke:none;" d="M130 68L130 77L132 77C132.204 73.7987 133.047 71.0506 134 68L130 68z"/>
<path style="fill:#7e58c8; stroke:none;" d="M137 68C136.1 71.0408 136.008 73.8309 136 77L138 77C137.998 73.8741 138.213 70.8897 137 68z"/>
<path style="fill:#785faa; stroke:none;" d="M139 68L138 72C139.459 70.6879 140.157 69.7691 141 68L139 68z"/>
<path style="fill:#7e63a9; stroke:none;" d="M143 76L145 76C145.636 72.0068 147.007 70.6359 151 70C145.642 66.5193 143.168 70.8826 143 76z"/>
<path style="fill:#7361b6; stroke:none;" d="M164 76L166 76L167 70L172 72L172 68C166.204 68.4937 164.194 70.028 164 76z"/>
<path style="fill:#755eab; stroke:none;" d="M187 76L189 76L190 70C192.436 72.3552 192.547 73.6638 192 77C199.357 72.6524 190.39 65.0119 187.603 71.1242C186.92 72.6229 187.052 74.4064 187 76z"/>
<path style="fill:#7f7f7f; stroke:none;" d="M198.667 68.3333C198.222 68.7778 199.278 68.7222 199.333 68.6667C199.778 68.2222 198.722 68.2778 198.667 68.3333z"/>
<path style="fill:#746493; stroke:none;" d="M201 68L201 70L203 70L203 68L201 68z"/>
<path style="fill:#7f66a8; stroke:none;" d="M213 77L213 68C209.364 68.3095 199.946 72.841 207.278 76.3966C208.967 77.2156 211.188 76.9785 213 77z"/>
<path style="fill:#8361c4; stroke:none;" d="M238 76C240.884 74.9669 242.942 74.6185 246 75C245.672 72.1287 242.764 65.3721 239.027 69.7562C237.673 71.3443 238.023 74.084 238 76z"/>
<path style="fill:#8861db; stroke:none;" d="M249 68L249 72C250.87 70.7708 251.224 70.1317 252 68L249 68z"/>
<path style="fill:#7b67a9; stroke:none;" d="M252 68C253.367 70.9069 254.318 72.7474 254 76C251.879 75.7535 250.126 75.7695 248 76C255.698 79.2224 260.376 70.5428 252 68z"/>
<path style="fill:#755da5; stroke:none;" d="M172 69C170.636 72.9354 168.835 74.4656 165 76C167.613 77.0977 170.165 76.9928 173 77C172.993 74.1645 173.098 71.6127 172 69z"/>
<path style="fill:#7866ba; stroke:none;" d="M198 69L198 75L200 75L201 69L198 69z"/>
<path style="fill:#000000; stroke:none;" d="M100 71C102.046 71.7511 102.596 71.6556 104 70L100 71z"/>
<path style="fill:#ff00ff; stroke:none;" d="M111 70L112 71L111 70z"/>
<path style="fill:#000000; stroke:none;" d="M111 72L114 72L113 70C111.365 70.5451 111.545 70.3648 111 72M121 76C123.886 74.3839 124.3 73.2868 124 70C120.578 71.1357 120.216 72.57 121 76M146 76C152.77 72.2424 144.222 68.1988 146 76z"/>
<path style="fill:#7c62c5; stroke:none;" d="M149 70L150 75L152 75C151.582 72.3106 151.283 71.4463 149 70z"/>
<path style="fill:#000000; stroke:none;" d="M167 70C166.354 72.4578 166.354 73.5422 167 76C170.472 74.0247 170.472 71.9753 167 70M178.603 71.1705C176.928 72.3549 178.531 75.4031 180.437 74.5077C182.587 73.4977 180.61 69.752 178.603 71.1705M190 70C189.354 72.4578 189.354 73.5422 190 76C193.472 74.0247 193.472 71.9753 190 70M210 76C210.646 73.5422 210.646 72.4578 210 70C206.528 71.9753 206.528 74.0247 210 76M240 70L240 72L243 72L243 70L240 70M251 70C250.7 73.2868 251.114 74.3839 254 76C254.784 72.57 254.422 71.1357 251 70z"/>
<path style="fill:#0000ff; stroke:none;" d="M106 71L107 72L106 71z"/>
<path style="fill:#7464a2; stroke:none;" d="M237 71L237 75C237.71 73.2405 237.71 72.7595 237 71z"/>
<path style="fill:#ff00ff; stroke:none;" d="M243 71L244 72L243 71z"/>
<path style="fill:#7661a8; stroke:none;" d="M155 72C154.438 73.8005 154.176 75.1219 154 77L156 77C155.912 75.0359 155.779 73.769 155 72z"/>
<path style="fill:#6e5c96; stroke:none;" d="M105 73C102.992 74.3183 101.255 75.1658 99 76C101.895 77.1722 105.884 76.9348 105 73z"/>
<path style="fill:#ff00ff; stroke:none;" d="M231 73L232 74L231 73z"/>
<path style="fill:#74659e; stroke:none;" d="M91 77C93.2974 76.3265 93.7741 76.0347 95 74C92.8683 74.7765 92.2292 75.1302 91 77z"/>
<path style="fill:#000000; stroke:none;" d="M100 74C101.81 75.2397 101.777 75.1837 104 75C102.494 74.317 101.685 74.1741 100 74z"/>
<path style="fill:#73629c; stroke:none;" d="M109 74C109.729 77.4029 111.806 76.9865 115 77C113.102 75.5491 111.258 74.8434 109 74z"/>
<path style="fill:#675b8c; stroke:none;" d="M149 74L144 76C146.831 77.1497 148.588 76.8272 151 75L149 74z"/>
<path style="fill:#000000; stroke:none;" d="M240 74C241.724 75.0555 241.921 75.0358 244 75C242.494 74.317 241.685 74.1741 240 74z"/>
<path style="fill:#75669a; stroke:none;" d="M119 76C120.506 76.683 121.315 76.8259 123 77C121.265 75.9499 121.069 75.9538 119 76z"/>
<path style="fill:#61548a; stroke:none;" d="M178 75C179.734 77.0034 181.355 76.923 184 77C182.025 75.6642 180.369 75.3238 178 75z"/>
<path style="fill:#645691; stroke:none;" d="M188 76C189.506 76.683 190.315 76.8259 192 77C190.265 75.9499 190.069 75.9538 188 76z"/>
<path style="fill:#696296; stroke:none;" d="M198 75L198 77L200 77L200 75L198 75z"/>
<path style="fill:#735e9f; stroke:none;" d="M239 76C241.529 77.0395 243.176 77.0932 245 75C242.884 75.1578 241.031 75.4026 239 76z"/>
<path style="fill:#655789; stroke:none;" d="M86 76C87.769 76.7789 89.0359 76.9124 91 77C89.2309 76.2211 87.9641 76.0876 86 76z"/>
<path style="fill:#6e5697; stroke:none;" d="M224.667 76.3333C224.222 76.7778 225.278 76.7222 225.333 76.6667C225.778 76.2222 224.722 76.2778 224.667 76.3333z"/>
</svg>
